<svg width="18" height="21" viewBox="0 0 18 21" fill="none" xmlns="http://www.w3.org/2000/svg">
<path d="M9.02943 0.75C6.96993 0.75 5.27943 2.4405 5.27943 4.5V5.25H1.57593L1.52943 5.9535L0.779428 19.4535L0.732178 20.25H17.3259L17.2794 19.4528L16.5294 5.95275L16.4822 5.25H12.7794V4.5C12.7794 2.4405 11.0889 0.75 9.02943 0.75ZM9.02943 2.25C9.62616 2.25 10.1985 2.48705 10.6204 2.90901C11.0424 3.33097 11.2794 3.90326 11.2794 4.5V5.25H6.77943V4.5C6.77943 3.90326 7.01648 3.33097 7.43844 2.90901C7.86039 2.48705 8.43269 2.25 9.02943 2.25ZM2.98218 6.75H5.27943V9H6.77943V6.75H11.2794V9H12.7794V6.75H15.0767L15.7329 18.75H2.32668L2.98218 6.75Z" fill="black"/>
</svg>
