<svg width="18" height="21" viewBox="0 0 18 21" fill="none" xmlns="http://www.w3.org/2000/svg">
<path d="M15.6667 4.72219L15.1156 13.6333C14.9751 15.9097 14.9049 17.0484 14.3333 17.8671C14.0512 18.2717 13.6879 18.6131 13.2667 18.8697C12.416 19.3889 11.2756 19.3889 8.99467 19.3889C6.71022 19.3889 5.568 19.3889 4.71556 18.8689C4.29412 18.6117 3.93086 18.2697 3.64889 17.8644C3.07822 17.0449 3.00889 15.9044 2.872 13.6244L2.33333 4.72219M1 4.72219H17M12.6053 4.72219L11.9982 3.47064C11.5956 2.63864 11.3938 2.22353 11.0462 1.96397C10.969 1.90648 10.8873 1.85534 10.8018 1.81108C10.4169 1.61108 9.95467 1.61108 9.03111 1.61108C8.08356 1.61108 7.60978 1.61108 7.21778 1.81908C7.13113 1.86549 7.04847 1.91901 6.97067 1.97908C6.61956 2.24842 6.42311 2.67953 6.03022 3.54086L5.49156 4.72219M6.77778 14.5V9.16664M11.2222 14.5V9.16664" stroke="#FE2D2D" stroke-width="1.5" stroke-linecap="round" stroke-linejoin="round"/>
</svg>
