<svg width="19" height="19" viewBox="0 0 19 19" fill="none" xmlns="http://www.w3.org/2000/svg">
<path d="M17.8731 18.1009C18.3331 18.5609 19.0431 17.8509 18.5831 17.4009L14.8331 13.6409C16.1489 12.1856 16.8761 10.2928 16.8731 8.33087C16.8731 3.94087 13.3031 0.370872 8.91313 0.370872C4.52313 0.370872 0.953125 3.94087 0.953125 8.33087C0.953125 12.7209 4.52313 16.2909 8.91313 16.2909C10.8931 16.2909 12.7231 15.5609 14.1231 14.3509L17.8731 18.1009ZM1.95213 8.33087C1.95213 4.49087 5.08212 1.37087 8.91212 1.37087C12.7521 1.37087 15.8721 4.49087 15.8721 8.33087C15.8721 12.1709 12.7521 15.2909 8.91212 15.2909C5.08212 15.2909 1.95213 12.1709 1.95213 8.33087Z" fill="black"/>
</svg>
