<svg width="25" height="24" viewBox="0 0 25 24" fill="none" xmlns="http://www.w3.org/2000/svg">
<g clip-path="url(#clip0_1_237)">
<path opacity="0.15" d="M5.25 22.875C5.25 22.9571 5.43753 23.0383 5.80187 23.1142C6.16622 23.19 6.70025 23.2589 7.37348 23.3169C8.0467 23.375 8.84593 23.421 9.72554 23.4524C10.6052 23.4838 11.5479 23.5 12.5 23.5C13.4521 23.5 14.3948 23.4838 15.2745 23.4524C16.1541 23.421 16.9533 23.375 17.6265 23.3169C18.2997 23.2589 18.8338 23.19 19.1981 23.1142C19.5625 23.0383 19.75 22.9571 19.75 22.875C19.75 22.7929 19.5625 22.7117 19.1981 22.6358C18.8338 22.56 18.2997 22.4911 17.6265 22.4331C16.9533 22.375 16.1541 22.329 15.2745 22.2976C14.3948 22.2662 13.4521 22.25 12.5 22.25C11.5479 22.25 10.6052 22.2662 9.72554 22.2976C8.84593 22.329 8.0467 22.375 7.37348 22.4331C6.70025 22.4911 6.16622 22.56 5.80187 22.6358C5.43753 22.7117 5.25 22.7929 5.25 22.875Z" fill="#45413C"/>
<path d="M17.3503 15.33C17.5853 14.575 18.3803 13.33 19.3903 13.165L23.5003 12.465C23.5659 12.461 23.6282 12.4345 23.6765 12.3898C23.7248 12.3452 23.7562 12.2852 23.7653 12.22C23.7519 12.1591 23.7186 12.1043 23.6706 12.0645C23.6226 12.0246 23.5626 12.0019 23.5003 12L19.4053 11.295C18.4053 11.125 17.6003 9.89003 17.3653 9.13503L16.4053 3.79503C16.3731 3.7355 16.3255 3.68577 16.2674 3.65111C16.2093 3.61644 16.1429 3.59814 16.0753 3.59814C16.0076 3.59814 15.9412 3.61644 15.8831 3.65111C15.825 3.68577 15.7774 3.7355 15.7453 3.79503L14.8003 9.11003C14.5653 9.86503 13.7753 11.11 12.7603 11.27L8.66527 12C8.59986 12.0032 8.53773 12.0296 8.49007 12.0746C8.44241 12.1195 8.41234 12.1799 8.40527 12.245C8.41329 12.3098 8.44366 12.3697 8.49112 12.4144C8.53859 12.4591 8.60018 12.4859 8.66527 12.49L12.7603 13.19C13.7603 13.365 14.5653 14.6 14.8003 15.355L15.7453 20.695C15.7774 20.7546 15.825 20.8043 15.8831 20.839C15.9412 20.8736 16.0076 20.8919 16.0753 20.8919C16.1429 20.8919 16.2093 20.8736 16.2674 20.839C16.3255 20.8043 16.3731 20.7546 16.4053 20.695L17.3503 15.33Z" fill="white"/>
<path d="M23.5004 12L19.4054 11.295C18.4054 11.125 17.6004 9.89003 17.3654 9.13503L16.4054 3.79503C16.3733 3.7355 16.3257 3.68577 16.2676 3.65111C16.2095 3.61644 16.1431 3.59814 16.0754 3.59814C16.0078 3.59814 15.9414 3.61644 15.8833 3.65111C15.8252 3.68577 15.7776 3.7355 15.7454 3.79503L15.4404 5.50003L16.3504 10.64C16.5854 11.395 17.3804 12.64 18.3904 12.8L19.9604 13.07L23.4604 12.465C23.5261 12.461 23.5884 12.4345 23.6367 12.3898C23.685 12.3452 23.7163 12.2852 23.7254 12.22C23.7143 12.165 23.6869 12.1147 23.6468 12.0754C23.6066 12.0362 23.5557 12.0099 23.5004 12Z" fill="white"/>
<path d="M17.3503 15.33C17.5853 14.575 18.3803 13.33 19.3903 13.165L23.5003 12.465C23.5659 12.461 23.6282 12.4345 23.6765 12.3898C23.7248 12.3452 23.7562 12.2852 23.7653 12.22C23.7519 12.1591 23.7186 12.1043 23.6706 12.0645C23.6226 12.0246 23.5626 12.0019 23.5003 12L19.4053 11.295C18.4053 11.125 17.6003 9.89003 17.3653 9.13503L16.4053 3.79503C16.3731 3.7355 16.3255 3.68577 16.2674 3.65111C16.2093 3.61644 16.1429 3.59814 16.0753 3.59814C16.0076 3.59814 15.9412 3.61644 15.8831 3.65111C15.825 3.68577 15.7774 3.7355 15.7453 3.79503L14.8003 9.11003C14.5653 9.86503 13.7753 11.11 12.7603 11.27L8.66527 12C8.59986 12.0032 8.53773 12.0296 8.49007 12.0746C8.44241 12.1195 8.41234 12.1799 8.40527 12.245C8.41329 12.3098 8.44366 12.3697 8.49112 12.4144C8.53859 12.4591 8.60018 12.4859 8.66527 12.49L12.7603 13.19C13.7603 13.365 14.5653 14.6 14.8003 15.355L15.7453 20.695C15.7774 20.7546 15.825 20.8043 15.8831 20.839C15.9412 20.8736 16.0076 20.8919 16.0753 20.8919C16.1429 20.8919 16.2093 20.8736 16.2674 20.839C16.3255 20.8043 16.3731 20.7546 16.4053 20.695L17.3503 15.33Z" stroke="#45413C" stroke-width="0.5" stroke-linecap="round" stroke-linejoin="round"/>
<path d="M7.81 8.135C7.94 7.725 8.375 7.05 8.93 6.955L11.175 6.575C11.26 6.575 11.32 6.505 11.32 6.44C11.32 6.375 11.26 6.32 11.175 6.305L8.93 5.925C8.66312 5.83269 8.4222 5.67787 8.22736 5.47346C8.03252 5.26905 7.88942 5.02099 7.81 4.75L7.31 1.855C7.29459 1.82099 7.26899 1.79262 7.23674 1.7738C7.20449 1.75499 7.16719 1.74667 7.13 1.75C7.09292 1.74739 7.05592 1.75602 7.02381 1.77474C6.9917 1.79347 6.96598 1.82144 6.95 1.855L6.45 4.75C6.37134 5.02137 6.2285 5.26982 6.03355 5.47433C5.83861 5.67885 5.59729 5.83343 5.33 5.925L3.09 6.305C3.005 6.305 2.945 6.375 2.945 6.44C2.945 6.505 3.005 6.56 3.09 6.575L5.33 6.955C5.89 7.05 6.33 7.725 6.45 8.135L6.95 11.04C6.96462 11.0749 6.98988 11.1044 7.0222 11.1241C7.05452 11.1439 7.09224 11.1529 7.13 11.15C7.16788 11.1537 7.20595 11.145 7.23844 11.1252C7.27092 11.1053 7.29604 11.0754 7.31 11.04L7.81 8.135ZM5.5 17.415C5.55473 17.2302 5.65334 17.0614 5.78742 16.923C5.92149 16.7846 6.08706 16.6806 6.27 16.62L7.81 16.365C7.82394 16.3683 7.83844 16.3683 7.85241 16.3652C7.86638 16.3621 7.87946 16.3558 7.89068 16.3469C7.9019 16.338 7.91096 16.3267 7.91719 16.3138C7.92342 16.3009 7.92665 16.2868 7.92665 16.2725C7.92665 16.2582 7.92342 16.2441 7.91719 16.2312C7.91096 16.2183 7.9019 16.207 7.89068 16.1981C7.87946 16.1892 7.86638 16.1829 7.85241 16.1798C7.83844 16.1767 7.82394 16.1767 7.81 16.18L6.27 15.925C6.08747 15.8637 5.9223 15.7595 5.78833 15.6211C5.65436 15.4828 5.55549 15.3144 5.5 15.13L5.145 13.18C5.1322 13.1582 5.11393 13.1402 5.09201 13.1276C5.07008 13.1151 5.04526 13.1085 5.02 13.1085C4.99474 13.1085 4.96992 13.1151 4.94799 13.1276C4.92607 13.1402 4.9078 13.1582 4.895 13.18L4.54 15.13C4.48464 15.3137 4.3864 15.4815 4.25338 15.6198C4.12037 15.758 3.9564 15.8626 3.775 15.925L2.23 16.18C2.21606 16.1767 2.20156 16.1767 2.18759 16.1798C2.17362 16.1829 2.16054 16.1892 2.14932 16.1981C2.13811 16.207 2.12904 16.2183 2.12281 16.2312C2.11659 16.2441 2.11335 16.2582 2.11335 16.2725C2.11335 16.2868 2.11659 16.3009 2.12281 16.3138C2.12904 16.3267 2.13811 16.338 2.14932 16.3469C2.16054 16.3558 2.17362 16.3621 2.18759 16.3652C2.20156 16.3683 2.21606 16.3683 2.23 16.365L3.77 16.62C3.95294 16.6806 4.11851 16.7846 4.25258 16.923C4.38666 17.0614 4.48527 17.2302 4.54 17.415L4.895 19.375C4.9078 19.3968 4.92607 19.4148 4.94799 19.4274C4.96992 19.4399 4.99474 19.4465 5.02 19.4465C5.04526 19.4465 5.07008 19.4399 5.09201 19.4274C5.11393 19.4148 5.1322 19.3968 5.145 19.375L5.5 17.415Z" fill="white" stroke="#45413C" stroke-width="0.5" stroke-linecap="round" stroke-linejoin="round"/>
</g>
<defs>
<clipPath id="clip0_1_237">
<rect width="24" height="24" fill="white" transform="translate(0.5)"/>
</clipPath>
</defs>
</svg>
