<svg width="151" height="40" viewBox="0 0 151 40" fill="none" xmlns="http://www.w3.org/2000/svg">
<g clip-path="url(#clip0_7_265)">
<path fill-rule="evenodd" clip-rule="evenodd" d="M46.5273 34.6924V34.674C46.5273 33.1313 44.8656 32.1396 42.9019 32.1396C40.9986 32.1396 39.1859 33.1681 39.1859 34.6557V34.674C39.1859 36.1984 40.9986 37.2085 42.9019 37.2085C44.8958 37.2085 46.5273 36.2718 46.5273 34.6924ZM39.2161 36.6942V37.9431H37.6753V28.7053H39.2161V32.7089C40.062 31.9192 41.2705 31.2581 43.1738 31.2581C45.6511 31.2581 48.0983 32.5069 48.0983 34.6557V34.674C48.0983 36.8044 45.6813 38.0717 43.1738 38.0717C41.2705 38.0717 40.0318 37.4289 39.2161 36.6942ZM60.4548 34.3067C60.3037 33.113 59.2161 32.0845 57.1617 32.0845C55.3792 32.0845 54.0197 33.0395 53.8082 34.3067H60.4548ZM52.2674 34.6924V34.674C52.2674 32.7824 54.352 31.2764 57.2221 31.2764C60.2735 31.2764 62.0257 32.8191 62.0257 34.7291C62.0257 34.8577 62.0257 34.9312 61.9955 35.0413H53.8384C54.0499 36.4555 55.6209 37.2636 57.4638 37.2636C58.8838 37.2636 59.8807 36.8963 60.6964 36.3453L61.6632 36.8963C60.636 37.6309 59.3671 38.1267 57.4336 38.1267C54.5937 38.09 52.2674 36.7126 52.2674 34.6924ZM73.4759 35.5372V34.8944C72.7206 34.7475 71.6934 34.6189 70.4548 34.6189C68.5212 34.6189 67.4336 35.1515 67.4336 35.978V35.9964C67.4336 36.8228 68.6421 37.3003 70.0318 37.3003C71.9351 37.3003 73.4759 36.5657 73.4759 35.5372ZM65.8928 36.0331V36.0147C65.8928 34.6373 67.6753 33.9027 70.3037 33.9027C71.6028 33.9027 72.5393 34.0129 73.4759 34.1782V33.9578C73.4759 32.7824 72.3279 32.1763 70.3943 32.1763C69.1859 32.1763 68.2191 32.3784 67.2523 32.6538L66.7992 31.8641C67.9472 31.5335 69.065 31.3132 70.5454 31.3132C71.9955 31.3132 73.1134 31.5519 73.8686 32.0294C74.5635 32.4702 74.926 33.113 74.926 33.9394V37.9431H73.4457V36.9514C72.7206 37.5391 71.5424 38.0717 69.7297 38.0717C67.8264 38.0717 65.8928 37.3921 65.8928 36.0331ZM80.0318 35.4638V31.405H81.5726V35.225C81.5726 36.4371 82.5998 37.1901 84.4124 37.1901C86.1647 37.1901 87.494 36.3637 87.494 35.1332V31.405H89.0046V37.9431H87.494V36.8044C86.7992 37.5207 85.7418 38.09 83.9593 38.09C81.4819 38.0717 80.0318 37.0248 80.0318 35.4638ZM94.9865 36.1984V32.2498H93.5363V31.405H94.9865V29.4399H96.5273V31.405H99.7901V32.2682H96.5273V36.0882C96.5273 36.8779 97.2221 37.1717 98.2493 37.1717C98.7629 37.1717 99.2161 37.1166 99.7297 36.9514V37.7778C99.1859 37.9615 98.6118 38.0533 97.8868 38.0533C96.2554 38.0533 94.9865 37.5391 94.9865 36.1984ZM112.207 31.405H113.838L109.518 38.1635C108.642 39.5225 107.645 40.0184 106.104 40.0184C105.258 40.0184 104.624 39.9082 103.899 39.6878L104.412 38.9165C104.926 39.0818 105.379 39.1552 106.014 39.1552C106.92 39.1552 107.494 38.843 108.128 37.9247L103.446 31.405H105.138L108.884 36.8595L112.207 31.405Z" fill="#1A1919"/>
<path d="M150.334 1.68962V0.936639H133.385V1.70799H136.013V16.382L120.182 0.936639H112.841V1.70799H115.469V21.3958H110.908L99.4272 0L87.5843 21.3774H83.2036V1.68962H85.832V0.936639H78.8833L70.122 17.0615L60.9377 0.936639H54.1099V1.70799H56.7383V21.3958H51.5117C50.0314 21.3958 48.7323 20.551 48.7323 19.1368V16.0147C48.7323 13.6272 47.5238 11.6437 43.7776 10.9642C47.0404 10.3398 49.3365 8.35629 49.3365 6.24426C49.3365 3.23232 45.8018 0.936639 38.9438 0.936639H28.6417V1.70799H31.2701V21.3958H25.9528L14.5027 0L2.65978 21.3774H0.333496V22.1488H6.94981V21.3774H4.0193L7.31235 15.4086H18.0676L21.2096 21.3774H17.1613V22.1488H39.6084V21.3774H35.5299V11.3499H38.2489C42.2368 11.3499 44.2308 12.3783 44.2308 14.8393V16.6575C44.2308 20.9734 48.7021 22.1488 51.1492 22.1488H60.7565V21.3774H57.8864V3.94858L68.6719 22.3691L78.8531 3.39761V21.3774H76.2247V22.1488H91.8743V21.3774H88.9438L92.2368 15.4086H102.992L106.134 21.3774H102.086V22.1488H119.276V21.3774H116.648V2.77319L137.192 22.8283V1.68962H143.385V21.3774H140.756V22.1488H150.334V21.3774H147.705V1.68962H150.334ZM7.7051 14.6556L12.7504 5.36272L17.6749 14.6556H7.7051ZM38.2791 10.5785H35.5601V1.68962H37.8259C41.8441 1.68962 44.5329 3.32415 44.5329 6.35445C44.5329 8.02571 42.4785 10.5785 38.2791 10.5785ZM92.6598 14.6556L97.7051 5.36272L102.63 14.6556H92.6598Z" fill="#1A1919"/>
</g>
<defs>
<clipPath id="clip0_7_265">
<rect width="150" height="40" fill="white" transform="translate(0.333496)"/>
</clipPath>
</defs>
</svg>
