<svg width="40" height="40" viewBox="0 0 40 40" fill="none" xmlns="http://www.w3.org/2000/svg">
<g clip-path="url(#clip0_7_257)">
<path fill-rule="evenodd" clip-rule="evenodd" d="M20.0677 37.5085C17.9642 39.0714 15.4781 40.1133 12.8008 40.1133C7.44622 40.1133 2.66533 36.2061 0.179273 30.2152L2.28286 28.6523L4.38645 27.0895C6.10757 30.9966 9.35857 33.6014 12.992 33.6014C14.1395 33.6014 15.2869 33.3409 16.243 32.8199C13.9482 29.4338 12.6096 24.7452 12.6096 19.7962C12.6096 14.8471 13.9482 10.419 16.0518 6.77237C15.0956 6.51189 13.9482 6.25142 12.8008 6.25142C9.16733 6.25142 5.91633 8.85618 4.19521 13.0238L-0.0119629 10.1586C-0.0119629 10.1586 -0.0119629 10.1586 -0.0119629 9.89808C2.66533 4.16761 7.44622 0 12.8008 0C15.4781 0 17.9642 1.0419 20.0677 2.60476C22.1713 1.0419 24.6574 0 27.3347 0C32.6893 0 37.4702 4.16761 40.1475 10.1586C40.1475 10.1586 40.1475 10.1586 40.1475 10.419L35.9403 13.2843C34.2192 9.11665 30.7769 6.51189 27.3347 6.51189C26.1873 6.51189 25.0399 6.77237 24.0837 7.29332C26.1873 10.6795 27.5259 15.3681 27.5259 20.3171C27.5259 25.2661 26.1873 29.6942 23.8925 33.3409C24.8486 33.8618 25.996 34.1223 27.1435 34.1223C30.7769 34.1223 33.8367 31.5176 35.749 27.6104L37.8526 29.1733L39.9562 30.7361C37.4702 36.7271 32.6893 40.6342 27.3347 40.6342C24.4662 40.1133 21.9801 39.0714 20.0677 37.5085ZM20.0677 29.4338C18.3466 27.0895 17.1992 23.7033 17.1992 20.0566C17.1992 16.41 18.1554 13.0238 20.0677 10.6795C21.7889 13.0238 22.9363 16.41 22.9363 20.0566C22.745 23.7033 21.7889 27.0895 20.0677 29.4338Z" fill="#161413"/>
</g>
<defs>
<clipPath id="clip0_7_257">
<rect width="40" height="40" fill="white"/>
</clipPath>
</defs>
</svg>
