<svg width="213" height="40" viewBox="0 0 213 40" fill="none" xmlns="http://www.w3.org/2000/svg">
<path fill-rule="evenodd" clip-rule="evenodd" d="M0.444458 1.28142H3.18441H3.40412H7.34901C12.1737 1.28142 16.229 9.57398 16.229 20.0048C16.229 30.2195 12.1727 38.5121 7.34901 38.7282H3.40412H3.07505H0.444458V1.28142ZM3.40412 5.74709V34.2606H6.5825C10.9678 34.0445 13.159 27.2398 13.159 20.2113C13.159 12.9744 10.9668 7.01886 7.34901 5.95359L3.40412 5.74709ZM27.8489 0.422637C33.7692 0.422637 38.4806 9.14749 38.4806 20.0029C38.4806 30.8487 33.7682 39.5754 27.8489 39.5754C22.0389 39.5754 17.2172 30.8506 17.2172 20.0029C17.2162 9.14942 22.0389 0.422637 27.8489 0.422637ZM27.8489 5.10638C32.1249 5.10638 35.6313 11.7026 35.6313 20.0048C35.6313 28.089 32.1249 34.6852 27.8489 34.6852C23.6843 34.6852 20.1749 28.089 20.1749 20.0048C20.1749 11.7026 23.6833 5.10638 27.8489 5.10638ZM39.3585 1.28142H42.2078V34.2626H47.6887V38.7282H42.2078H40.8935H39.3585V1.28142ZM56.8967 0.216143C59.0889 0.216143 61.1727 1.48792 62.9254 3.61847V10.4308C61.4988 7.01886 59.3076 4.89024 56.8967 4.89024C52.6208 4.89024 49.2227 11.7026 49.2227 20.0048C49.2227 28.089 52.6208 34.8936 56.8967 34.8936C59.3086 34.8936 61.4998 32.7727 62.9254 29.3627V36.3835C61.1717 38.514 59.0879 39.7954 56.8967 39.7954C51.0868 39.7954 46.265 30.8525 46.265 20.0068C46.265 9.14942 51.0878 0.216143 56.8967 0.216143ZM66.7619 34.2606H73.6685V38.7263H66.7619H63.8023V34.2606V21.0682V16.5929V5.53095V1.28142H66.7619H73.6685V5.53095H66.7619V16.5929H73.6685V21.0682H66.7619V34.2606ZM84.5209 36.175C84.1918 36.8157 83.8618 37.2403 83.4233 37.663C83.0943 38.0875 82.6568 38.3037 82.2174 38.5102C82.108 38.5102 81.9987 38.5102 81.8893 38.7263C81.779 38.7263 81.6696 38.7263 81.5602 38.7263C81.2312 38.7263 81.0115 38.5102 80.6824 38.5102C80.3533 38.3037 80.1336 38.0856 79.8045 37.663C79.5858 37.2384 79.3671 36.5977 79.1484 35.957C79.038 35.3259 78.9287 34.6852 78.8193 34.0445V33.8283C78.8193 33.6218 78.8193 33.6218 78.8193 33.6218C78.8193 33.4057 78.8193 33.4057 78.8193 33.4057C78.8193 33.1992 78.8193 33.1992 78.8193 32.9811H78.9287C78.9287 32.7746 78.9287 32.7746 78.9287 32.7746C78.9287 32.7746 78.9287 32.7746 78.9287 32.5585C79.037 31.4932 79.2577 30.646 79.6952 29.7872C80.1326 29.1562 80.571 28.5155 81.0105 27.8748C80.7917 27.2437 80.571 26.603 80.3523 25.9623C80.1326 25.5377 80.0232 24.6905 80.0232 24.0498V23.8337C80.0232 23.6272 80.0232 23.6272 80.0232 23.4091C80.0232 23.1929 80.0232 23.1929 80.0232 23.1929C80.1326 23.1929 80.1326 22.9864 80.1326 22.9864C80.243 22.1392 80.4627 21.4985 80.7918 20.8559C81.2292 20.4313 81.5583 20.2152 81.9967 20.2152C81.9967 20.2152 81.9967 20.2152 82.106 20.2152H82.2154C82.2154 20.2152 82.2154 20.2152 82.3258 20.2152C82.7632 20.2152 83.312 20.6494 83.7514 21.2805C84.0795 21.9212 84.2982 22.7684 84.2982 24.0517C84.2982 25.117 84.1898 25.9642 83.8598 26.6049C83.4213 27.4521 83.0933 28.0928 82.6548 28.5174L84.7376 33.4076C84.847 32.9831 85.0667 32.5604 85.2864 31.9197C85.5051 31.4952 85.6145 31.0725 85.8352 30.6479L86.4923 31.9197C86.383 32.3443 86.1633 32.7766 86.0539 33.2011C85.9446 33.6257 85.7248 34.0483 85.5051 34.4729C85.5051 34.4729 85.5051 34.4729 85.3958 34.689C85.3958 34.689 85.3958 34.8955 85.2864 34.8955L86.8204 38.3075H85.5051L84.5209 36.175ZM81.9987 36.8157C82.3277 36.8157 82.6568 36.5996 82.9849 36.175C83.2046 35.7505 83.5327 35.3278 83.7534 34.8936C83.8618 34.8936 83.8618 34.8936 83.8618 34.8936C83.8618 34.8936 83.8618 34.8936 83.9721 34.6871L81.5612 29.3627C81.5612 29.5788 81.5612 29.5788 81.4509 29.5788C81.3415 29.7853 81.3415 29.7853 81.3415 29.7853C81.1218 30.0014 81.0125 30.2195 80.7947 30.426C80.573 30.8506 80.4657 31.0667 80.3553 31.4913C80.2469 31.4913 80.2469 31.7074 80.2469 31.9159C80.1366 32.132 80.1366 32.3404 80.1366 32.5566C80.0272 32.7727 80.0272 32.9811 80.0272 32.9811C80.0272 33.1973 80.0272 33.4057 80.0272 33.6218C80.0272 34.4691 80.1366 35.1098 80.4667 35.9589C80.9041 36.5996 81.2332 36.8157 81.781 36.8157H81.8913C81.8903 36.8157 81.8903 36.8157 81.9987 36.8157ZM81.1218 23.6233C81.1218 23.8298 81.1218 23.8298 81.1218 23.8298V24.0459C81.1218 24.4705 81.1218 24.8931 81.2322 25.3177C81.3415 25.7423 81.5612 26.1746 81.6696 26.383C81.779 26.5991 81.779 26.5991 81.8893 26.8075L81.9987 27.0237H82.108C82.108 27.0237 82.2174 27.0237 82.2174 26.8075C82.4371 26.6011 82.6568 26.383 82.8765 25.9603C83.0953 25.5358 83.2056 25.1131 83.314 24.4724C83.314 24.2563 83.314 24.2563 83.314 24.2563C83.314 24.0498 83.314 24.0498 83.314 24.0498C83.314 23.4091 83.2046 22.9845 82.9849 22.5619C82.7652 22.3457 82.5475 22.1373 82.3278 22.1373C82.2174 22.1373 82.2174 22.1373 82.2174 22.1373C82.2174 22.1373 82.2174 22.1373 82.108 22.1373C81.8893 22.1373 81.6696 22.1373 81.4499 22.5619C81.2322 22.7645 81.1218 23.1891 81.1218 23.6233ZM102.278 0C106.114 0 109.512 3.83461 111.486 9.36749L108.965 11.9207C107.54 7.6615 105.127 4.89024 102.387 4.89024C98.0029 4.89024 94.6048 11.7026 94.6048 20.0048C94.6048 28.2974 98.0029 34.8936 102.387 34.8936C106.005 34.8936 108.854 31.4913 109.075 24.2544H102.827V19.7887H108.854C108.854 19.7887 111.923 19.7887 112.145 19.7887C112.145 19.7887 112.145 8.30221 112.145 20.0048C112.145 31.7074 108.854 40 102.279 40C95.7014 40 91.5358 31.0667 91.5358 20.0048C91.5358 8.93134 96.3585 0 102.278 0ZM110.499 38.7282L118.502 1.28142H120.366L128.366 38.7282H125.298L123.106 28.089H115.761L113.57 38.7282H110.499ZM116.858 23.4052L119.487 9.99662L122.009 23.4052H116.858ZM156.429 38.7282L164.321 1.28142H166.183L174.186 38.7282H171.118L168.926 28.089H161.579L159.387 38.7282H156.429ZM162.677 23.4052L165.308 9.99662L167.938 23.4052H162.677ZM194.574 38.7282L202.577 1.28142H204.441L212.444 38.7282H209.373L207.073 28.089H199.837L197.646 38.7282H194.574ZM200.933 23.4052L203.455 9.99662L206.085 23.4052H200.933ZM135.273 5.53095C137.246 5.95552 137.902 7.44343 137.902 11.28C137.902 14.8984 136.587 16.8109 134.943 16.8109H132.421V5.53095H135.273ZM135.492 21.2766H135.601C137.026 21.2766 139.548 21.9173 139.548 28.089C139.548 32.9792 137.356 34.2606 135.273 34.2606H135.709H132.42V21.2747H134.942H135.492V21.2766ZM131.766 38.7282H132.421H136.698C140.096 38.7282 142.619 34.2626 142.619 28.089C142.619 23.1891 141.082 19.5803 138.89 18.0904C140.096 16.5929 140.754 13.8312 140.754 10.4289C140.754 4.88831 138.89 1.27949 135.931 1.27949C134.395 1.06335 132.751 1.27949 131.217 1.27949H131.106C131.106 1.27949 131.106 1.27949 130.998 1.27949H129.464V38.7263H131.766V38.7282ZM149.961 5.53095C151.825 5.95552 152.483 7.44343 152.591 11.28C152.591 14.8984 151.276 16.8109 149.631 16.8109H147.11V5.53095H149.961ZM150.072 21.2766C150.181 21.2766 150.181 21.2766 150.181 21.2766C151.606 21.2766 154.125 21.9173 154.125 28.089C154.125 32.9792 151.933 34.2606 149.851 34.2606H150.399H147.11V21.2747H149.631H150.072V21.2766ZM146.344 38.7282H147.11H151.387C154.785 38.7282 157.195 34.2626 157.195 28.089C157.195 23.1891 155.661 19.5803 153.47 18.0904C154.785 16.5929 155.44 13.8312 155.44 10.4289C155.44 4.88831 153.47 1.27949 150.618 1.27949C148.974 1.06335 147.44 1.27949 145.794 1.27949C145.686 1.27949 145.686 1.27949 145.686 1.27949H145.576H144.042V38.7263H146.344V38.7282ZM175.502 1.28142H177.366L190.849 28.9381V1.28142H193.48V38.7282H191.506L178.242 11.278V38.7282H175.502V1.28142Z" fill="black"/>
</svg>
