<svg width="41" height="40" viewBox="0 0 41 40" fill="none" xmlns="http://www.w3.org/2000/svg">
<path d="M14.6039 37.9303H29.0822C33.6474 37.9303 36.1257 34.0157 37.2126 31.676L37.8648 30.0112H40.517L35.43 40H0.908267L1.82131 37.8853H3.12566C3.16914 37.8853 3.16914 37.8853 3.21261 37.8853C3.38653 37.8853 3.56044 37.8853 3.73435 37.8853H4.73435C6.38653 37.8403 8.16914 37.3003 9.38653 34.1057C9.51696 33.7908 9.60392 33.5208 9.73435 33.2958L13.1691 24.207L5.77783 6.4342C5.60392 6.16423 5.47348 5.80427 5.29957 5.44432C4.38653 3.2396 3.0387 2.56468 2.0387 2.33971H0.777832V0H12.7344V2.33971H12.1691C12.1257 2.33971 12.0822 2.33971 12.0822 2.33971C11.0822 2.33971 10.0387 2.3847 10.6909 3.95951C10.7344 4.04949 10.7344 4.13948 10.7778 4.18448L16.0387 16.7829L18.9083 9.17885C19.2561 7.964 18.6909 7.55906 18.1257 7.46907H16.6909L17.7778 4.85939H30.2126L29.1257 7.46907H27.1691C26.2996 7.69404 25.1691 8.41395 24.2126 10.3937L18.9952 23.937L21.6474 30.2362L21.6909 30.2812C21.8213 30.6412 22.0387 30.8211 22.343 30.2812C22.343 30.2362 22.3865 30.2362 22.3865 30.1912L32.7778 6.52418C32.8648 6.25422 32.9952 5.93926 33.1691 5.5793C34.2561 3.10461 33.1691 2.47469 32.2996 2.33971H30.7778V0H40.7778V2.33971H39.1257C38.4735 2.47469 37.4735 2.87964 36.5604 4.27447L22.7344 35.8155L18.0387 35.7255L16.1691 31.3161L13.9952 36.9854C13.9952 37.0304 13.9952 37.0754 13.9517 37.1204C13.7778 37.7503 14.0822 37.9303 14.6039 37.9303Z" fill="#1B140F"/>
</svg>
