<svg width="99" height="40" viewBox="0 0 99 40" fill="none" xmlns="http://www.w3.org/2000/svg">
<g clip-path="url(#clip0_7_262)">
<path fill-rule="evenodd" clip-rule="evenodd" d="M79.3632 0L93.9147 38.7636H98.9632V39.0545H83.001V38.7636H87.6783L82.9268 26.0364H73.1268L73.201 26.1818C73.5722 27.2727 73.795 28.5091 73.795 29.6727V34.4727C73.795 36.9455 74.9086 39.4182 76.9874 39.4182C78.2495 39.4182 79.2147 38.9818 80.4025 37.9636L80.551 38.1091C79.2889 39.4182 77.7298 40 75.3541 40C73.5722 40 72.0874 39.5636 70.8995 38.7636L70.6768 38.6182C69.1177 37.4545 68.0783 35.4909 67.6329 32.8727L67.5586 32.4364L67.4844 31.7818V31.6364L64.8116 38.7636H68.598V39.0545H60.6541V38.7636H64.5147L67.4844 30.9091C67.4844 30.4727 67.4101 29.9636 67.4101 29.5273V26.1818C67.4101 21.9636 64.2177 19.5636 58.6495 19.5636H53.1556V38.8364H57.9071V39.1273H39.4207V38.8364H44.098L39.3465 26.1091H26.0571L21.3056 38.6909H21.5283C27.7647 37.6727 30.5859 33.0182 30.6601 28.1455H30.9571V39.2H0.888916L23.2359 1.6H14.2526C6.82831 1.6 3.41316 7.2 3.33892 12.8H3.11619V1.30909H30.2147L30.0662 1.6L7.8677 38.8364H19.5238C19.8207 38.8364 20.1177 38.8364 20.4147 38.8364C20.6374 38.8364 20.7859 38.8364 21.0086 38.7636H21.0829L35.5601 0H35.8571L47.2904 30.5455V1.6H42.6132V1.30909H58.798C66.5935 1.30909 72.0132 5.23636 72.0132 10.8364C72.0132 14.9091 68.301 18.3273 62.8071 19.2727L61.7677 19.4182L62.8071 19.4909C66.148 19.8545 68.8207 20.8727 70.6768 22.4727L79.0662 0H79.3632ZM72.9783 25.7455L82.7041 25.8182L76.1707 8.43636L70.8253 22.7636L71.1222 23.0545C71.9389 23.7818 72.5328 24.7273 72.9783 25.7455ZM53.1556 19.2727V1.6H57.3132C62.8813 1.6 65.851 4.8 65.851 10.9091C65.851 17.3818 64.1435 19.3455 58.6495 19.3455C58.6495 19.2727 53.1556 19.2727 53.1556 19.2727ZM32.7389 8.36364L26.2056 25.7455H39.2722L32.7389 8.36364Z" fill="black"/>
</g>
<defs>
<clipPath id="clip0_7_262">
<rect width="98" height="40" fill="white" transform="translate(0.888916)"/>
</clipPath>
</defs>
</svg>
